<svg width="311" height="311" viewBox="0 0 311 311" fill="none" xmlns="http://www.w3.org/2000/svg">
<path d="M171.988 6.8298C187.151 -2.86547 207.33 2.54585 215.616 18.4979C221.084 29.0951 232.245 35.521 244.138 34.9574C262.12 34.1118 276.888 48.9366 276.043 66.8616C275.479 78.7552 281.905 89.916 292.502 95.3837C308.454 103.67 313.865 123.849 304.17 139.012C297.744 149.046 297.744 161.954 304.17 171.988C313.865 187.151 308.454 207.33 292.502 215.616C281.905 221.084 275.479 232.245 276.043 244.138C276.888 262.12 262.063 276.888 244.138 276.043C232.245 275.479 221.084 281.905 215.616 292.502C207.33 308.454 187.151 313.865 171.988 304.17C161.954 297.744 149.046 297.744 139.012 304.17C123.849 313.865 103.67 308.454 95.3837 292.502C89.916 281.905 78.7552 275.479 66.8616 276.043C48.8802 276.888 34.1118 262.063 34.9574 244.138C35.521 232.245 29.0951 221.084 18.4979 215.616C2.54585 207.33 -2.86547 187.151 6.8298 171.988C13.2557 161.954 13.2557 149.102 6.8298 139.069C-2.86547 123.906 2.54585 103.726 18.4979 95.4401C29.0951 89.9724 35.521 78.8115 34.9574 66.9179C34.1118 48.9366 48.9366 34.1682 66.8616 35.0137C78.7552 35.5774 89.916 29.1515 95.3837 18.5543C103.726 2.54585 123.906 -2.86547 139.069 6.8298C149.102 13.2557 161.954 13.2557 171.988 6.8298Z" stroke="white" stroke-width="3"/>
</svg> 