<svg width="100%" height="100%" viewBox="0 0 315 314" fill="none" xmlns="http://www.w3.org/2000/svg">
<path d="M154.675 271.953L182.194 310L196.058 265.158L235.453 290.663L232.157 243.887L278.145 253.504L258.159 211.014L304.513 203.383L270.506 170.98L311 147.148L267.576 129.222L296.665 92.3768L249.736 91.3315L263.548 46.4898L219.339 62.4301L215.991 15.6024L180.572 46.4376L160.534 4L138.666 45.4968L104.659 13.1983L99.2705 59.7646L55.8468 41.8907L67.6706 87.3073L20.6893 86.3143L48.1561 124.414L4 140.406L43.3429 166.015L7.97614 196.903L53.9634 206.519L32.1469 248.068L78.5003 240.49L73.1639 287.109L113.658 263.329L125.534 308.746L154.675 271.953Z" stroke="white" stroke-width="3"/>
</svg>
