<svg width="318" height="307" viewBox="0 0 318 307" fill="none" xmlns="http://www.w3.org/2000/svg">
<path d="M159.029 305.5V306.05L158.972 306.052V305.5H158.972H158.972H158.971H158.971H158.971H158.971H158.97H158.97H158.97H158.969H158.969H158.969H158.968H158.968H158.968H158.967H158.967H158.967H158.966H158.966H158.966H158.965H158.965H158.965H158.965H158.964H158.964H158.964H158.963H158.963H158.963H158.963H158.962H158.962H158.962H158.961H158.961H158.961H158.961H158.96H158.96H158.96H158.959H158.959H158.959H158.959H158.958H158.958H158.958H158.957H158.957H158.957H158.957H158.956H158.956H158.956H158.956H158.955H158.955H158.955H158.955H158.954H158.954H158.954H158.953H158.953H158.953H158.953H158.952H158.952H158.952H158.952H158.951H158.951H158.951H158.951H158.95H158.95H158.95H158.95H158.949H158.949H158.949H158.949H158.949H158.948H158.948H158.948H158.948H158.947H158.947H158.947H158.947H158.946H158.946H158.946H158.946H158.945H158.945H158.945H158.945H158.944H158.944H158.943H158.943H158.943H158.942H158.942H158.941H158.941H158.94H158.94H158.94H158.939H158.939H158.938H158.938H158.938H158.937H158.937H158.936H158.936H158.936H158.935H158.935H158.934H158.934H158.934H158.933H158.933H158.933H158.932H158.932H158.931H158.931H158.931H158.93H158.93H158.93H158.929H158.929H158.928H158.928H158.928H158.927H158.927H158.927H158.926H158.926H158.926H158.925H158.925H158.925H158.924H158.924H158.924H158.923H158.923H158.923H158.922H158.922H158.922H158.921H158.921H158.921H158.92H158.92H158.92H158.919H158.919H158.919H158.918H158.918H158.918H158.917H158.917H158.917H158.916H158.916H158.916H158.915H158.915H158.915H158.914H158.914H158.914H158.913H158.913H158.913H158.912H158.912H158.912H158.911H158.911H158.911H158.91H158.91H158.91H158.909H158.909H158.909H158.908H158.908H158.908H158.907H158.907H158.907H158.906H158.906H158.905H158.905H158.905H158.904H158.904H158.904H158.903H158.903H158.903H158.902H158.902H158.902H158.901H158.901H158.9H158.9H158.9H158.899H158.899H158.899H158.898H158.898H158.897H158.897H158.897H158.896H158.896H158.895H158.895H158.895H158.894H158.894H158.893H158.893H158.893H158.892H158.892H158.891H158.891H158.89H158.89H158.89H158.889H158.889H158.889H158.888H158.888H158.888H158.888H158.887H158.887H158.887H158.886H158.886H158.886H158.886H158.886H158.885H158.885H158.885H158.885H158.884H158.884H158.884H158.884H158.883H158.883H158.883H158.883H158.882H158.882H158.882H158.882H158.881H158.881H158.881H158.881H158.88H158.88H158.88H158.88H158.879H158.879H158.879H158.879H158.878H158.878H158.878H158.878H158.877H158.877H158.877H158.877H158.876H158.876H158.876H158.876H158.875H158.875H158.875H158.874H158.874H158.874H158.874H158.873H158.873H158.873H158.873H158.872H158.872H158.872H158.871H158.871H158.871H158.871H158.87H158.87H158.87H158.869H158.869H158.869H158.868H158.868H158.868H158.868H158.867H158.867H158.867H158.866H158.866H158.866H158.865H158.865H158.865H158.865H158.864H158.864H158.864H158.863H158.863H158.863H158.862H158.862H158.862H158.861H158.861H158.861H158.86H158.86H158.86C99.6297 305.5 23.691 243.96 3.81941 132.05L3.81937 132.05C-0.579575 107.295 1.47689 86.8315 8.31023 70.0545C15.1421 53.281 26.7923 40.0852 41.7575 29.9309C71.74 9.58689 114.967 1.5 158.916 1.5V0.581584L159.029 0.599882V1.5C202.977 1.5 246.219 9.58688 276.216 29.9311C291.188 40.0855 302.845 53.2814 309.682 70.0548C316.521 86.8318 318.581 107.295 314.182 132.05C294.31 243.96 218.372 305.5 159.142 305.5H159.141H159.141H159.141H159.14H159.14H159.14H159.139H159.139H159.139H159.138H159.138H159.138H159.137H159.137H159.137H159.136H159.136H159.136H159.135H159.135H159.135H159.135H159.134H159.134H159.134H159.133H159.133H159.133H159.132H159.132H159.132H159.132H159.131H159.131H159.131H159.13H159.13H159.13H159.13H159.129H159.129H159.129H159.128H159.128H159.128H159.128H159.127H159.127H159.127H159.127H159.126H159.126H159.126H159.125H159.125H159.125H159.125H159.124H159.124H159.124H159.124H159.123H159.123H159.123H159.123H159.122H159.122H159.122H159.122H159.121H159.121H159.121H159.121H159.12H159.12H159.12H159.12H159.119H159.119H159.119H159.119H159.118H159.118H159.118H159.118H159.117H159.117H159.117H159.117H159.116H159.116H159.116H159.116H159.115H159.115H159.115H159.115H159.115H159.114H159.114H159.114H159.113H159.113H159.113H159.112H159.112H159.111H159.111H159.111H159.11H159.11H159.109H159.109H159.108H159.108H159.108H159.107H159.107H159.106H159.106H159.106H159.105H159.105H159.104H159.104H159.104H159.103H159.103H159.103H159.102H159.102H159.101H159.101H159.101H159.1H159.1H159.1H159.099H159.099H159.098H159.098H159.098H159.097H159.097H159.097H159.096H159.096H159.096H159.095H159.095H159.095H159.094H159.094H159.094H159.093H159.093H159.093H159.092H159.092H159.092H159.091H159.091H159.09H159.09H159.09H159.089H159.089H159.089H159.088H159.088H159.088H159.087H159.087H159.087H159.087H159.086H159.086H159.086H159.085H159.085H159.085H159.084H159.084H159.084H159.083H159.083H159.083H159.082H159.082H159.082H159.081H159.081H159.081H159.08H159.08H159.08H159.079H159.079H159.079H159.078H159.078H159.077H159.077H159.077H159.076H159.076H159.076H159.075H159.075H159.075H159.074H159.074H159.074H159.073H159.073H159.073H159.072H159.072H159.072H159.071H159.071H159.07H159.07H159.07H159.069H159.069H159.069H159.068H159.068H159.067H159.067H159.067H159.066H159.066H159.066H159.065H159.065H159.064H159.064H159.064H159.063H159.063H159.062H159.062H159.061H159.061H159.061H159.06H159.06H159.059H159.059H159.059H159.058H159.058H159.057H159.057H159.057H159.056H159.056H159.056H159.056H159.055H159.055H159.055H159.055H159.054H159.054H159.054H159.054H159.053H159.053H159.053H159.053H159.053H159.052H159.052H159.052H159.052H159.051H159.051H159.051H159.051H159.05H159.05H159.05H159.05H159.049H159.049H159.049H159.049H159.048H159.048H159.048H159.048H159.047H159.047H159.047H159.046H159.046H159.046H159.046H159.045H159.045H159.045H159.045H159.044H159.044H159.044H159.044H159.043H159.043H159.043H159.042H159.042H159.042H159.042H159.041H159.041H159.041H159.04H159.04H159.04H159.04H159.039H159.039H159.039H159.038H159.038H159.038H159.038H159.037H159.037H159.037H159.036H159.036H159.036H159.035H159.035H159.035H159.035H159.034H159.034H159.034H159.033H159.033H159.033H159.032H159.032H159.032H159.031H159.031H159.031H159.03H159.03H159.03H159.029H159.029H159.029Z" stroke="white" stroke-width="3"/>
</svg>
