<svg width="319" height="349" viewBox="0 0 319 349" fill="none" xmlns="http://www.w3.org/2000/svg">
<path d="M298.371 204.536L246.38 174.5L298.371 144.464C316.129 134.18 322.205 111.507 311.982 93.6844L305.673 82.7571C295.391 64.9929 272.726 58.9156 254.909 69.1418L202.918 99.1773V39.1646C202.976 18.654 186.327 2 165.823 2H153.205C132.701 2 116.052 18.654 116.052 39.1646V99.2358L64.0611 69.2002C46.3024 58.9156 23.5783 65.0513 13.2969 82.8155L6.98791 93.6844C-3.29343 111.449 2.84032 134.18 20.599 144.464L72.5899 174.5L20.599 204.536C2.84032 214.762 -3.23502 237.493 6.98791 255.257L13.2969 266.184C23.5783 283.949 46.244 290.026 64.0611 279.8L116.052 249.764V309.835C116.052 330.346 132.701 347 153.205 347H165.823C186.327 347 202.976 330.346 202.976 309.835V249.764L254.967 279.8C272.726 290.084 295.45 283.949 305.731 266.184L312.04 255.257C322.263 237.493 316.188 214.762 298.371 204.536Z" stroke="white" stroke-width="3"/>
</svg> 