<svg width="304" height="309" viewBox="0 0 304 309" fill="none" xmlns="http://www.w3.org/2000/svg">
<path d="M260.33 231.614L260.168 230.123L258.365 230.318L258.895 232.053L260.33 231.614ZM243.2 282.794L244.08 284.009L244.081 284.008L243.2 282.794ZM299.479 199.742L298.052 199.279L298.051 199.282L299.479 199.742ZM290.071 154.532L288.949 153.536L288.067 154.53L288.947 155.526L290.071 154.532ZM299.588 109.258L301.016 108.798L301.015 108.795L299.588 109.258ZM260.327 77.403L258.892 76.9665L258.364 78.7011L260.167 78.8944L260.327 77.403ZM243.145 26.2601L242.264 27.4738L242.266 27.4753L243.145 26.2601ZM191.554 24.2075L190.275 24.9922L191.059 26.2685L192.336 25.4872L191.554 24.2075ZM112.278 24.1441L111.496 25.4242L112.772 26.2031L113.555 24.9308L112.278 24.1441ZM60.7026 26.2601L61.5841 27.4738L61.5862 27.4723L60.7026 26.2601ZM43.5546 77.3817L43.7148 78.8732L45.5173 78.6796L44.9897 76.9452L43.5546 77.3817ZM4.31409 109.258L2.88728 108.795L4.31409 109.258ZM13.7575 154.49L14.8797 155.485L15.7624 154.49L14.8798 153.494L13.7575 154.49ZM4.25941 199.742L2.83166 200.202L2.8326 200.205L4.25941 199.742ZM43.5556 231.601L44.9897 232.04L45.5228 230.302L43.7144 230.109L43.5556 231.601ZM60.757 282.795L61.6385 281.581L61.637 281.58L60.757 282.795ZM112.333 284.856L113.61 284.07L112.827 282.797L111.551 283.576L112.333 284.856ZM191.569 284.856L192.351 283.576L191.076 282.797L190.292 284.069L191.569 284.856ZM258.895 232.053C264.351 249.902 258.258 270.003 242.318 281.581L244.081 284.008C261.09 271.654 267.582 250.211 261.764 231.176L258.895 232.053ZM298.051 199.282C292.451 216.667 277.236 228.276 260.168 230.123L260.491 233.105C278.692 231.136 294.93 218.755 300.907 200.202L298.051 199.282ZM288.947 155.526C299.154 167.067 303.151 183.559 298.052 199.279L300.906 200.205C306.345 183.436 302.077 165.844 291.194 153.538L288.947 155.526ZM298.16 109.718C303.234 125.467 299.201 141.991 288.949 153.536L291.192 155.528C302.122 143.22 306.427 125.596 301.016 108.798L298.16 109.718ZM260.167 78.8944C277.262 80.7281 292.515 92.3159 298.161 109.721L301.015 108.795C294.99 90.2226 278.714 77.8665 260.487 75.9116L260.167 78.8944ZM242.266 27.4753C258.202 39.0078 264.329 59.094 258.892 76.9665L261.762 77.8395C267.56 58.7819 261.032 37.3528 244.025 25.0449L242.266 27.4753ZM192.336 25.4872C207.382 16.2864 227.11 16.4672 242.264 27.4738L244.027 25.0465C227.859 13.3034 206.815 13.1163 190.771 22.9279L192.336 25.4872ZM151.896 3.5C168.131 3.5 182.359 12.0961 190.275 24.9922L192.832 23.4228C184.393 9.67496 169.217 0.5 151.896 0.5V3.5ZM113.555 24.9308C121.479 12.0688 135.688 3.5 151.896 3.5V0.5C134.603 0.5 119.448 9.64583 111.001 23.3573L113.555 24.9308ZM61.5862 27.4723C76.7348 16.4297 96.4538 16.2356 111.496 25.4242L113.06 22.864C97.0176 13.0646 75.9816 13.2663 59.819 25.048L61.5862 27.4723ZM44.9897 76.9452C39.5642 59.1097 45.6607 39.0392 61.5841 27.4738L59.8211 25.0465C42.8301 37.3873 36.3338 58.7984 42.1196 77.8183L44.9897 76.9452ZM5.7409 109.721C11.3852 92.321 26.6298 80.7074 43.7148 78.8732L43.3945 75.8903C25.1746 77.8464 8.90919 90.2312 2.88728 108.795L5.7409 109.721ZM14.8798 153.494C4.64378 141.952 0.638576 125.45 5.7409 109.721L2.88728 108.795C-2.55556 125.574 1.72105 143.178 12.6352 155.485L14.8798 153.494ZM5.68715 199.282C0.616798 183.543 4.64165 167.029 14.8797 155.485L12.6352 153.494C1.7204 165.802 -2.57644 183.414 2.83166 200.202L5.68715 199.282ZM43.7144 230.109C26.6057 228.287 11.3359 216.696 5.68622 199.279L2.8326 200.205C8.86133 218.79 25.1556 231.15 43.3968 233.092L43.7144 230.109ZM61.637 281.58C45.6485 269.998 39.5172 249.89 44.9897 232.04L42.1215 231.161C36.2833 250.203 42.8214 271.654 59.8771 284.009L61.637 281.58ZM111.551 283.576C96.5077 292.768 76.7875 292.584 61.6385 281.581L59.8756 284.008C76.0382 295.747 97.0733 295.938 113.115 286.136L111.551 283.576ZM151.951 305.5C135.742 305.5 121.534 296.931 113.61 284.07L111.056 285.643C119.503 299.354 134.658 308.5 151.951 308.5V305.5ZM190.292 284.069C182.368 296.931 168.16 305.5 151.951 305.5V308.5C169.244 308.5 184.399 299.354 192.846 285.643L190.292 284.069ZM242.32 281.58C227.128 292.585 207.397 292.768 192.351 283.576L190.787 286.136C206.832 295.939 227.877 295.747 244.08 284.009L242.32 281.58Z" fill="white"/>
</svg>
